REM MD5 1688540304bb8748d1843e85accd9ce3
FILE "Ancient Roman Extra (Japan) (Demo).bin" BINARY
  TRACK 01 MODE2/2352
    INDEX 01 00:00:00
  TRACK 02 AUDIO
    INDEX 00 14:29:71
    INDEX 01 14:31:71
  TRACK 03 AUDIO
    INDEX 00 16:49:72
    INDEX 01 16:51:72
REM LEADOUT 20:11:72
